<svg xmlns="http://www.w3.org/2000/svg" viewBox="0 0 99.5 99.33"><defs><style>.a{fill:none;}.b{fill:#fff;}</style></defs><rect class="a" width="99.5" height="99.5"/><path class="b" d="M42.25,49.78a7.5,7.5,0,1,1,7.47,7.39,7.38,7.38,0,0,1-7.47-7.39Z"/><path class="b" d="M49.74,12.34a4.92,4.92,0,0,0-5,5.07v0a5,5,0,1,0,5-5.09Z"/><path class="b" d="M49.74,27.33a4.92,4.92,0,0,0-5,5.08h0a5,5,0,1,0,5-5.09Z"/><path class="b" d="M67.94,32.64a5,5,0,1,0-7.32,6.81,14.89,14.89,0,0,1,4,10.19A14.54,14.54,0,0,1,49.67,64.47,14.46,14.46,0,0,1,34.92,50a15.12,15.12,0,0,1,3.91-10.51,5,5,0,1,0-7.31-6.81A24.91,24.91,0,0,0,24.92,50a24.83,24.83,0,1,0,43-17.36Z"/></svg>