<?xml version="1.0" encoding="utf-8"?>
<!-- Generator: Adobe Illustrator 24.3.0, SVG Export Plug-In . SVG Version: 6.00 Build 0)  -->
<svg version="1.1" id="Layer_1" xmlns="http://www.w3.org/2000/svg" xmlns:xlink="http://www.w3.org/1999/xlink" x="0px" y="0px"
	 viewBox="0 0 99.5 99.3" style="enable-background:new 0 0 99.5 99.3;" xml:space="preserve">
<style type="text/css">
	.st0{fill:none;}
	.st1{fill:#80286C;}
	.st2{fill:#9BB8D3;}
	.st3{fill:#009776;}
	.st4{fill:#333F48;}
</style>
<rect y="0" class="st0" width="99.5" height="99.5"/>
<path class="st1" d="M42.2,49.8c-0.1-4.1,3.2-7.5,7.4-7.6c4.1-0.1,7.5,3.2,7.6,7.4c0.1,4.1-3.2,7.5-7.4,7.6c0,0-0.1,0-0.1,0
	c-4.1,0-7.4-3.2-7.5-7.3C42.3,49.8,42.2,49.8,42.2,49.8z"/>
<path class="st2" d="M49.7,12.3c-2.7,0-5,2.1-5,4.8c0,0.1,0,0.2,0,0.2l0,0c0,2.8,2.3,5,5.1,4.9c2.8,0,5-2.3,4.9-5.1
	C54.7,14.5,52.5,12.3,49.7,12.3L49.7,12.3z"/>
<path class="st3" d="M49.7,27.3c-2.7,0-5,2.1-5,4.8c0,0.1,0,0.2,0,0.2l0,0c0,2.8,2.3,5,5.1,4.9c2.8,0,5-2.3,4.9-5.1
	C54.7,29.5,52.5,27.3,49.7,27.3L49.7,27.3z"/>
<path class="st4" d="M67.9,32.6c-1.8-2.1-5-2.2-7.1-0.4c-2.1,1.8-2.2,5-0.4,7.1c0,0.1,0.1,0.1,0.1,0.1c2.6,2.8,4,6.4,4,10.2
	c0.2,8-6.2,14.7-14.2,14.8c-0.2,0-0.5,0-0.7,0c-8,0.2-14.6-6.2-14.7-14.2c0-0.1,0-0.2,0-0.3c-0.1-3.9,1.3-7.6,3.9-10.5
	c2-1.9,2-5.1,0.1-7.1c-1.9-2-5.1-2-7.1-0.1c-0.1,0.1-0.2,0.2-0.3,0.3c-4.3,4.7-6.7,10.9-6.6,17.3c0.2,13.7,11.6,24.6,25.3,24.4
	s24.6-11.6,24.4-25.3C74.5,43,72.1,37.1,67.9,32.6L67.9,32.6z"/>
</svg>
