<?xml version="1.0" encoding="utf-8"?>
<!-- Generator: Adobe Illustrator 24.3.0, SVG Export Plug-In . SVG Version: 6.00 Build 0)  -->
<svg version="1.1" id="Layer_1" xmlns="http://www.w3.org/2000/svg" xmlns:xlink="http://www.w3.org/1999/xlink" x="0px" y="0px"
	 viewBox="0 0 385.7 149" style="enable-background:new 0 0 385.7 149;" xml:space="preserve">
<style type="text/css">
	.st0{fill:none;}
	.st1{fill:#333F48;}
	.st2{fill:#80286C;}
	.st3{fill:#9BB8D3;}
	.st4{fill:#009776;}
</style>
<rect y="0" class="st0" width="385.7" height="149"/>
<path class="st1" d="M144.3,99.3c-13.6,0.1-24.7-10.9-24.8-24.5c0-14.4,10.7-25.2,24.8-25.2c5.9-0.1,11.7,2,16.2,5.9L161,56
	c2.1,1.9,2.2,5,0.4,7.1c-1.9,2.1-5,2.2-7.1,0.4l-0.3-0.2c-2.7-2.3-6.2-3.5-9.7-3.5c-7.4,0-14.8,5.2-14.8,15.1
	c0,8,6.5,14.5,14.5,14.5c0.1,0,0.2,0,0.3,0c4,0.1,8-1.5,10.7-4.5c1.4-1.5,2.3-3.3,2.8-5.3h-13.4c-2.8,0-5-2.2-5-5s2.2-5,5-5H163
	c2.6,0,4.7,1.9,5,4.4c0.8,6.4-1.2,12.8-5.5,17.5C157.9,96.6,151.2,99.4,144.3,99.3z"/>
<path class="st1" d="M54.7,99.3c-2.8,0-5-2.2-5-5V54.7c0-2.8,2.2-5,5-5s5,2.2,5,5v39.7C59.7,97.1,57.4,99.3,54.7,99.3z"/>
<path class="st1" d="M272.3,99.3c-2.8,0-5-2.2-5-5V54.7c0-2.8,2.2-5,5-5s5,2.2,5,5v39.7C277.3,97.1,275.1,99.3,272.3,99.3z"/>
<path class="st1" d="M76.2,99.3c-2.8,0-5-2.2-5-5V54.7c0-2.8,2.2-5,4.9-5.1c1.6,0,3.1,0.7,4.1,2l21.5,28V54.7c0-2.8,2.2-5,5-5
	s5,2.2,5,5v39.7c0,2.8-2.2,5-5,5c-1.6,0-3.1-0.7-4-2l-21.5-28v25C81.2,97.1,79,99.3,76.2,99.3C76.2,99.3,76.2,99.3,76.2,99.3z"/>
<path class="st1" d="M220.3,99.3c-2.8,0-5-2.2-5-5V54.7c0-2.8,2.2-5,4.9-5.1c1.6,0,3.1,0.7,4.1,2l21.5,28V54.7c0-2.8,2.2-5,5-5
	s5,2.2,5,5v39.7c0,2.8-2.2,5-5,5c-1.6,0-3.1-0.7-4-2l-21.5-28v25C225.3,97.1,223.1,99.3,220.3,99.3z"/>
<path class="st1" d="M201,79.5L201,79.5c2.8,0,5-2.2,5-5s-2.2-5-5-5h-14.9v-9.8H201c2.8,0,5-2.2,5-5s-2.2-5-5-5h-19.8
	c-2.8,0-5,2.2-5,5v39.7c0,2.8,2.2,5,5,5h19.8c2.8,0,5-2.2,5-5s-2.2-5-5-5h-14.8v-9.8L201,79.5z"/>
<path class="st2" d="M303.7,74.6c-0.1-4.1,3.2-7.6,7.4-7.6s7.6,3.2,7.6,7.4c0.1,4.1-3.2,7.6-7.4,7.6c0,0-0.1,0-0.1,0
	C307.1,82,303.7,78.8,303.7,74.6C303.7,74.7,303.7,74.6,303.7,74.6z"/>
<path class="st3" d="M311.2,37.2c-2.7,0-5,2.1-5,4.9c0,0.1,0,0.1,0,0.2l0,0c0,2.8,2.3,5,5.1,4.9c2.8,0,5-2.3,4.9-5.1
	C316.1,39.3,313.9,37.2,311.2,37.2L311.2,37.2z"/>
<path class="st4" d="M311.2,52.2c-2.7,0-5,2.1-5,4.9c0,0.1,0,0.1,0,0.2l0,0c0.1,2.8,2.3,5,5.1,4.9c2.8-0.1,5-2.3,4.9-5.1
	C316.1,54.3,313.9,52.1,311.2,52.2L311.2,52.2z"/>
<path class="st1" d="M329.4,57.5c-1.9-2-5.1-2-7.1-0.1c-1.9,1.9-2,4.9-0.2,6.9c2.6,2.8,4,6.4,4,10.2c-0.1,8.2-6.8,14.8-15,14.6
	c-7.9-0.1-14.4-6.4-14.6-14.3c-0.1-3.9,1.3-7.6,3.9-10.5c1.9-2,1.8-5.2-0.2-7.1s-5.2-1.8-7.1,0.3l0,0c-4.4,4.7-6.7,11-6.6,17.4
	c0.2,13.7,11.5,24.6,25.3,24.4s24.6-11.5,24.4-25.3C335.9,67.8,333.6,62,329.4,57.5L329.4,57.5z"/>
</svg>
