<svg xmlns="http://www.w3.org/2000/svg" viewBox="0 0 385.67 149"><defs><style>.a{fill:none;}</style></defs><rect class="a" width="385.67" height="149"/><path d="M144.3,99.33a24.64,24.64,0,0,1-24.75-24.47c0-14.38,10.66-25.19,24.8-25.19a24.64,24.64,0,0,1,16.21,5.87L161,56a5,5,0,0,1-6.7,7.43l-.26-.23a14.73,14.73,0,0,0-9.72-3.48c-7.35,0-14.8,5.2-14.8,15.14A14.48,14.48,0,0,0,144.3,89.33,14,14,0,0,0,155,84.83a12,12,0,0,0,2.77-5.33H144.38a5,5,0,0,1,0-10H163a5,5,0,0,1,5,4.43,22.19,22.19,0,0,1-5.47,17.55A24.23,24.23,0,0,1,144.3,99.33Z"/><path d="M54.67,99.33a5,5,0,0,1-5-5V54.67a5,5,0,0,1,10,0V94.33A5,5,0,0,1,54.67,99.33Z"/><path d="M272.31,99.33a5,5,0,0,1-5-5V54.67a5,5,0,0,1,10,0V94.33A5,5,0,0,1,272.31,99.33Z"/><path d="M76.2,99.33a5,5,0,0,1-5-5V54.67a5,5,0,0,1,9-3.05l21.48,28V54.67a5,5,0,0,1,10,0V94.33a5,5,0,0,1-9,3l-21.47-28V94.33A5,5,0,0,1,76.2,99.33Z"/><path d="M220.33,99.33a5,5,0,0,1-5-5V54.67a5,5,0,0,1,9-3.05l21.48,28V54.67a5,5,0,1,1,10,0V94.33a5,5,0,0,1-9,3l-21.48-28V94.33A5,5,0,0,1,220.33,99.33Z"/><path d="M201,79.52h0a5,5,0,0,0,0-10l-14.85,0V59.67h14.83a5,5,0,0,0,0-10H181.22a5,5,0,0,0-5,5V94.33a5,5,0,0,0,5,5h19.83a5,5,0,0,0,0-10H186.22V79.49Z"/><path d="M303.67,74.62A7.5,7.5,0,1,1,311.14,82a7.4,7.4,0,0,1-7.47-7.38Z"/><path d="M311.17,37.17a4.93,4.93,0,0,0-5,5.08h0a5,5,0,1,0,5-5.09Z"/><path d="M311.17,52.16a4.94,4.94,0,0,0-5,5.08v0a5,5,0,1,0,5-5.1Z"/><path d="M329.37,57.47a5,5,0,0,0-7.32,6.81,14.93,14.93,0,0,1,4,10.19,14.84,14.84,0,0,1-29.67.31,15.08,15.08,0,0,1,3.92-10.5,5,5,0,0,0-7.32-6.82,25,25,0,0,0-6.6,17.38,24.84,24.84,0,1,0,43-17.37Z"/></svg>